<svg width="126" height="149" viewBox="0 0 126 149" fill="none" xmlns="http://www.w3.org/2000/svg">
<g clip-path="url(#clip0_47_96)">
<path d="M15.44 100.97C15.41 99.38 15.38 97.79 15.35 96.19C15.27 91.73 15.18 87.28 15.1 82.93C15.04 79.59 14.97 76.33 14.91 73.14C14.91 73.07 14.83 73.04 14.78 73.08L1.80999 82.36L1.01999 82.93C1.07999 86.05 1.13999 89.39 1.19999 92.86C1.21999 94.04 1.24999 95.25 1.26999 96.46C1.35999 101.1 1.44999 105.88 1.52999 110.54C1.59999 114.05 1.66999 117.49 1.72999 120.75C1.76999 122.89 3.53999 124.59 5.67999 124.55C6.54999 124.53 7.45999 124.52 8.37999 124.5C11.14 124.45 13.95 124.4 15.8 124.36C15.85 124.36 15.88 124.32 15.88 124.28C15.85 122.67 15.82 121.03 15.78 119.38C15.73 116.4 15.67 113.36 15.61 110.28C15.58 108.86 15.56 107.42 15.53 105.99H23.29L15.43 100.96L15.44 100.97Z" fill="url(#paint0_linear_47_96)"/>
<path d="M14.86 70.47C14.8 67.35 14.74 64.01 14.68 60.54C14.66 59.36 14.63 58.15 14.61 56.94C14.52 52.3 14.43 47.52 14.35 42.86C14.28 39.32 14.21 35.85 14.15 32.57C14.11 30.47 12.38 28.81 10.29 28.85C9.4 28.87 8.45 28.88 7.5 28.9C4.7 28.95 1.85 29 0 29.04C0.03 30.68 0.06 32.34 0.1 34.02C0.15 37 0.21 40.04 0.27 43.12C0.36 47.77 0.44 52.49 0.53 57.21C0.61 61.67 0.7 66.12 0.78 70.47C0.84 73.86 0.91 77.18 0.97 80.41L14.07 71.04L14.86 70.47Z" fill="url(#paint1_linear_47_96)"/>
<path d="M46.9 46.09C46.87 44.76 46.84 43.42 46.82 42.07C46.57 28.7 46.36 15.21 46.12 2.36C46.1 1.31 46.36 0 45.38 0.06L39.41 0H33.21C32.34 0.3 31.97 1.07 31.98 2.09C32.02 4.52 32.07 6.98 32.12 9.46C30.43 10.67 27.91 12.48 25.36 14.3L32.2 14.17L32.47 28.25C32.51 30.35 32.79 45.04 33.09 61.06L25.36 66H33.18C33.53 84.37 33.88 102.98 33.92 105.34L47.83 95.57L47.01 51.86C46.95 48.73 46.96 49.34 46.9 46.09Z" fill="url(#paint2_linear_47_96)"/>
<path d="M91.05 32.19L90.3 31.61C78.09 22.13 62.66 10.13 50.51 0.699989C49.23 -0.290011 47.38 0.649989 47.42 2.26999C47.94 19.22 49.29 77.89 50.33 93.8L61.72 85.52L61.83 25.75C77.24 36.33 91.34 49.89 104.66 60.25L125.94 59.29C115.48 51.15 101.56 40.36 91.05 32.19Z" fill="url(#paint3_linear_47_96)"/>
<path d="M75.71 73.61L92.29 63H75.71V73.61Z" fill="url(#paint4_linear_47_96)"/>
</g>
<path d="M21.56 135.66V144H20.192V140.352H16.268V144H14.9V135.66H16.268V139.236H20.192V135.66H21.56ZM29.3489 137.388V144H27.9809V143.22C27.7649 143.492 27.4809 143.708 27.1289 143.868C26.7849 144.02 26.4169 144.096 26.0249 144.096C25.5049 144.096 25.0369 143.988 24.6209 143.772C24.2129 143.556 23.8889 143.236 23.6489 142.812C23.4169 142.388 23.3009 141.876 23.3009 141.276V137.388H24.6569V141.072C24.6569 141.664 24.8049 142.12 25.1009 142.44C25.3969 142.752 25.8009 142.908 26.3129 142.908C26.8249 142.908 27.2289 142.752 27.5249 142.44C27.8289 142.12 27.9809 141.664 27.9809 141.072V137.388H29.3489ZM32.5219 138.372C32.7539 138.052 33.0699 137.792 33.4699 137.592C33.8779 137.384 34.3299 137.28 34.8259 137.28C35.4099 137.28 35.9379 137.42 36.4099 137.7C36.8819 137.98 37.2539 138.38 37.5259 138.9C37.7979 139.412 37.9339 140 37.9339 140.664C37.9339 141.328 37.7979 141.924 37.5259 142.452C37.2539 142.972 36.8779 143.38 36.3979 143.676C35.9259 143.964 35.4019 144.108 34.8259 144.108C34.3139 144.108 33.8579 144.008 33.4579 143.808C33.0659 143.608 32.7539 143.352 32.5219 143.04V144H31.1539V135.12H32.5219V138.372ZM36.5419 140.664C36.5419 140.208 36.4459 139.816 36.2539 139.488C36.0699 139.152 35.8219 138.9 35.5099 138.732C35.2059 138.556 34.8779 138.468 34.5259 138.468C34.1819 138.468 33.8539 138.556 33.5419 138.732C33.2379 138.908 32.9899 139.164 32.7979 139.5C32.6139 139.836 32.5219 140.232 32.5219 140.688C32.5219 141.144 32.6139 141.544 32.7979 141.888C32.9899 142.224 33.2379 142.48 33.5419 142.656C33.8539 142.832 34.1819 142.92 34.5259 142.92C34.8779 142.92 35.2059 142.832 35.5099 142.656C35.8219 142.472 36.0699 142.208 36.2539 141.864C36.4459 141.52 36.5419 141.12 36.5419 140.664ZM47.4319 142.296H43.9399L43.3399 144H41.9119L44.8999 135.648H46.4839L49.4719 144H48.0319L47.4319 142.296ZM47.0479 141.18L45.6919 137.304L44.3239 141.18H47.0479ZM50.3151 140.688C50.3151 140.008 50.4511 139.412 50.7231 138.9C51.0031 138.38 51.3871 137.98 51.8751 137.7C52.3631 137.42 52.9231 137.28 53.5551 137.28C54.3551 137.28 55.0151 137.472 55.5351 137.856C56.0631 138.232 56.4191 138.772 56.6031 139.476H55.1271C55.0071 139.148 54.8151 138.892 54.5511 138.708C54.2871 138.524 53.9551 138.432 53.5551 138.432C52.9951 138.432 52.5471 138.632 52.2111 139.032C51.8831 139.424 51.7191 139.976 51.7191 140.688C51.7191 141.4 51.8831 141.956 52.2111 142.356C52.5471 142.756 52.9951 142.956 53.5551 142.956C54.3471 142.956 54.8711 142.608 55.1271 141.912H56.6031C56.4111 142.584 56.0511 143.12 55.5231 143.52C54.9951 143.912 54.3391 144.108 53.5551 144.108C52.9231 144.108 52.3631 143.968 51.8751 143.688C51.3871 143.4 51.0031 143 50.7231 142.488C50.4511 141.968 50.3151 141.368 50.3151 140.688ZM57.5104 140.664C57.5104 140 57.6464 139.412 57.9184 138.9C58.1984 138.388 58.5744 137.992 59.0464 137.712C59.5264 137.424 60.0544 137.28 60.6304 137.28C61.1504 137.28 61.6024 137.384 61.9864 137.592C62.3784 137.792 62.6904 138.044 62.9224 138.348V137.388H64.3024V144H62.9224V143.016C62.6904 143.328 62.3744 143.588 61.9744 143.796C61.5744 144.004 61.1184 144.108 60.6064 144.108C60.0384 144.108 59.5184 143.964 59.0464 143.676C58.5744 143.38 58.1984 142.972 57.9184 142.452C57.6464 141.924 57.5104 141.328 57.5104 140.664ZM62.9224 140.688C62.9224 140.232 62.8264 139.836 62.6344 139.5C62.4504 139.164 62.2064 138.908 61.9024 138.732C61.5984 138.556 61.2704 138.468 60.9184 138.468C60.5664 138.468 60.2384 138.556 59.9344 138.732C59.6304 138.9 59.3824 139.152 59.1904 139.488C59.0064 139.816 58.9144 140.208 58.9144 140.664C58.9144 141.12 59.0064 141.52 59.1904 141.864C59.3824 142.208 59.6304 142.472 59.9344 142.656C60.2464 142.832 60.5744 142.92 60.9184 142.92C61.2704 142.92 61.5984 142.832 61.9024 142.656C62.2064 142.48 62.4504 142.224 62.6344 141.888C62.8264 141.544 62.9224 141.144 62.9224 140.688ZM65.6432 140.664C65.6432 140 65.7792 139.412 66.0512 138.9C66.3312 138.388 66.7072 137.992 67.1792 137.712C67.6592 137.424 68.1912 137.28 68.7752 137.28C69.2072 137.28 69.6312 137.376 70.0472 137.568C70.4712 137.752 70.8072 138 71.0552 138.312V135.12H72.4352V144H71.0552V143.004C70.8312 143.324 70.5192 143.588 70.1192 143.796C69.7272 144.004 69.2752 144.108 68.7632 144.108C68.1872 144.108 67.6592 143.964 67.1792 143.676C66.7072 143.38 66.3312 142.972 66.0512 142.452C65.7792 141.924 65.6432 141.328 65.6432 140.664ZM71.0552 140.688C71.0552 140.232 70.9592 139.836 70.7672 139.5C70.5832 139.164 70.3392 138.908 70.0352 138.732C69.7312 138.556 69.4032 138.468 69.0512 138.468C68.6992 138.468 68.3712 138.556 68.0672 138.732C67.7632 138.9 67.5152 139.152 67.3232 139.488C67.1392 139.816 67.0472 140.208 67.0472 140.664C67.0472 141.12 67.1392 141.52 67.3232 141.864C67.5152 142.208 67.7632 142.472 68.0672 142.656C68.3792 142.832 68.7072 142.92 69.0512 142.92C69.4032 142.92 69.7312 142.832 70.0352 142.656C70.3392 142.48 70.5832 142.224 70.7672 141.888C70.9592 141.544 71.0552 141.144 71.0552 140.688ZM80.292 140.532C80.292 140.78 80.276 141.004 80.244 141.204H75.192C75.232 141.732 75.428 142.156 75.78 142.476C76.132 142.796 76.564 142.956 77.076 142.956C77.812 142.956 78.332 142.648 78.636 142.032H80.112C79.912 142.64 79.548 143.14 79.02 143.532C78.5 143.916 77.852 144.108 77.076 144.108C76.444 144.108 75.876 143.968 75.372 143.688C74.876 143.4 74.484 143 74.196 142.488C73.916 141.968 73.776 141.368 73.776 140.688C73.776 140.008 73.912 139.412 74.184 138.9C74.464 138.38 74.852 137.98 75.348 137.7C75.852 137.42 76.428 137.28 77.076 137.28C77.7 137.28 78.256 137.416 78.744 137.688C79.232 137.96 79.612 138.344 79.884 138.84C80.156 139.328 80.292 139.892 80.292 140.532ZM78.864 140.1C78.856 139.596 78.676 139.192 78.324 138.888C77.972 138.584 77.536 138.432 77.016 138.432C76.544 138.432 76.14 138.584 75.804 138.888C75.468 139.184 75.268 139.588 75.204 140.1H78.864ZM77.04 135.888L75.324 136.92V135.852L77.04 134.856L78.756 135.852V136.92L77.04 135.888ZM89.6423 137.28C90.1623 137.28 90.6263 137.388 91.0343 137.604C91.4503 137.82 91.7743 138.14 92.0063 138.564C92.2463 138.988 92.3663 139.5 92.3663 140.1V144H91.0103V140.304C91.0103 139.712 90.8623 139.26 90.5663 138.948C90.2703 138.628 89.8663 138.468 89.3543 138.468C88.8423 138.468 88.4343 138.628 88.1303 138.948C87.8343 139.26 87.6863 139.712 87.6863 140.304V144H86.3303V140.304C86.3303 139.712 86.1823 139.26 85.8863 138.948C85.5903 138.628 85.1863 138.468 84.6743 138.468C84.1623 138.468 83.7543 138.628 83.4503 138.948C83.1543 139.26 83.0063 139.712 83.0063 140.304V144H81.6383V137.388H83.0063V138.144C83.2303 137.872 83.5143 137.66 83.8583 137.508C84.2023 137.356 84.5703 137.28 84.9623 137.28C85.4903 137.28 85.9623 137.392 86.3783 137.616C86.7943 137.84 87.1143 138.164 87.3383 138.588C87.5383 138.188 87.8503 137.872 88.2743 137.64C88.6983 137.4 89.1543 137.28 89.6423 137.28ZM94.803 136.512C94.555 136.512 94.347 136.428 94.179 136.26C94.011 136.092 93.927 135.884 93.927 135.636C93.927 135.388 94.011 135.18 94.179 135.012C94.347 134.844 94.555 134.76 94.803 134.76C95.043 134.76 95.247 134.844 95.415 135.012C95.583 135.18 95.667 135.388 95.667 135.636C95.667 135.884 95.583 136.092 95.415 136.26C95.247 136.428 95.043 136.512 94.803 136.512ZM95.475 137.388V144H94.107V137.388H95.475ZM96.8151 140.688C96.8151 140.008 96.9511 139.412 97.2231 138.9C97.5031 138.38 97.8871 137.98 98.3751 137.7C98.8631 137.42 99.4231 137.28 100.055 137.28C100.855 137.28 101.515 137.472 102.035 137.856C102.563 138.232 102.919 138.772 103.103 139.476H101.627C101.507 139.148 101.315 138.892 101.051 138.708C100.787 138.524 100.455 138.432 100.055 138.432C99.4951 138.432 99.0471 138.632 98.7111 139.032C98.3831 139.424 98.2191 139.976 98.2191 140.688C98.2191 141.4 98.3831 141.956 98.7111 142.356C99.0471 142.756 99.4951 142.956 100.055 142.956C100.847 142.956 101.371 142.608 101.627 141.912H103.103C102.911 142.584 102.551 143.12 102.023 143.52C101.495 143.912 100.839 144.108 100.055 144.108C99.4231 144.108 98.8631 143.968 98.3751 143.688C97.8871 143.4 97.5031 143 97.2231 142.488C96.9511 141.968 96.8151 141.368 96.8151 140.688ZM107.334 144.108C106.71 144.108 106.146 143.968 105.642 143.688C105.138 143.4 104.742 143 104.454 142.488C104.166 141.968 104.022 141.368 104.022 140.688C104.022 140.016 104.17 139.42 104.466 138.9C104.762 138.38 105.166 137.98 105.678 137.7C106.19 137.42 106.762 137.28 107.394 137.28C108.026 137.28 108.598 137.42 109.11 137.7C109.622 137.98 110.026 138.38 110.322 138.9C110.618 139.42 110.766 140.016 110.766 140.688C110.766 141.36 110.614 141.956 110.31 142.476C110.006 142.996 109.59 143.4 109.062 143.688C108.542 143.968 107.966 144.108 107.334 144.108ZM107.334 142.92C107.686 142.92 108.014 142.836 108.318 142.668C108.63 142.5 108.882 142.248 109.074 141.912C109.266 141.576 109.362 141.168 109.362 140.688C109.362 140.208 109.27 139.804 109.086 139.476C108.902 139.14 108.658 138.888 108.354 138.72C108.05 138.552 107.722 138.468 107.37 138.468C107.018 138.468 106.69 138.552 106.386 138.72C106.09 138.888 105.854 139.14 105.678 139.476C105.502 139.804 105.414 140.208 105.414 140.688C105.414 141.4 105.594 141.952 105.954 142.344C106.322 142.728 106.782 142.92 107.334 142.92Z" fill="black"/>
<defs>
<linearGradient id="paint0_linear_47_96" x1="1.01999" y1="98.81" x2="23.29" y2="98.81" gradientUnits="userSpaceOnUse">
<stop stop-color="#2A2649"/>
<stop offset="0.54" stop-color="#282547"/>
<stop offset="0.74" stop-color="#252140"/>
<stop offset="0.88" stop-color="#1E1B34"/>
<stop offset="0.99" stop-color="#151223"/>
<stop offset="1" stop-color="#141222"/>
</linearGradient>
<linearGradient id="paint1_linear_47_96" x1="0" y1="54.63" x2="14.86" y2="54.63" gradientUnits="userSpaceOnUse">
<stop stop-color="#2A2649"/>
<stop offset="0.54" stop-color="#282547"/>
<stop offset="0.74" stop-color="#252140"/>
<stop offset="0.88" stop-color="#1E1B34"/>
<stop offset="0.99" stop-color="#151223"/>
<stop offset="1" stop-color="#141222"/>
</linearGradient>
<linearGradient id="paint2_linear_47_96" x1="25.36" y1="52.67" x2="47.83" y2="52.67" gradientUnits="userSpaceOnUse">
<stop stop-color="#2A2649"/>
<stop offset="0.54" stop-color="#282547"/>
<stop offset="0.74" stop-color="#252140"/>
<stop offset="0.88" stop-color="#1E1B34"/>
<stop offset="0.99" stop-color="#151223"/>
<stop offset="1" stop-color="#141222"/>
</linearGradient>
<linearGradient id="paint3_linear_47_96" x1="47.42" y1="47.05" x2="125.94" y2="47.05" gradientUnits="userSpaceOnUse">
<stop stop-color="#2A2649"/>
<stop offset="0.54" stop-color="#282547"/>
<stop offset="0.74" stop-color="#252140"/>
<stop offset="0.88" stop-color="#1E1B34"/>
<stop offset="0.99" stop-color="#151223"/>
<stop offset="1" stop-color="#141222"/>
</linearGradient>
<linearGradient id="paint4_linear_47_96" x1="75.71" y1="68.31" x2="92.29" y2="68.31" gradientUnits="userSpaceOnUse">
<stop stop-color="#2A2649"/>
<stop offset="0.54" stop-color="#282547"/>
<stop offset="0.74" stop-color="#252140"/>
<stop offset="0.88" stop-color="#1E1B34"/>
<stop offset="0.99" stop-color="#151223"/>
<stop offset="1" stop-color="#141222"/>
</linearGradient>
<clipPath id="clip0_47_96">
<rect width="125.94" height="124.55" fill="white"/>
</clipPath>
</defs>
</svg>
